<svg xmlns="http://www.w3.org/2000/svg" xmlns:xlink="http://www.w3.org/1999/xlink" viewBox="0 0 8548 200.39"><defs><style>.cls-1{fill:#fff;}</style></defs><title>Recurso 2r</title><g id="Capa_2" data-name="Capa 2"><g id="Capa_1-2" data-name="Capa 1"><image width="8192" height="200" xlink:href="nature-sprite.png"/><rect width="356" height="200"/><rect x="356" width="356" height="200"/><rect x="712" width="356" height="200"/><rect x="1068" width="356" height="200"/><rect x="1424" width="356" height="200"/><rect x="1780" width="356" height="200"/><rect x="2136" width="356" height="200"/><rect x="2492" width="356" height="200"/><rect x="2848" width="356" height="200"/><rect x="3204" width="356" height="200"/><rect x="3560" width="356" height="200"/><rect x="3916" width="356" height="200"/><rect x="4272" width="358" height="200"/><rect x="4630" width="356" height="200"/><rect x="4986" width="356" height="200"/><rect x="5342" width="356" height="200"/><rect x="5698" width="357" height="200"/><rect x="6055" width="356" height="200"/><rect x="6411" width="356" height="200"/><rect x="6767" width="356" height="200"/><rect x="7123" width="356" height="200"/><rect x="7479" width="357" height="200"/><rect x="8192" width="356" height="200"/><rect x="7836" width="356" height="200"/><path class="cls-1" d="M356,0V2c6.44.51,28.16.18,47,1,23,1,44-2,62,0s33-3,54-3c29,0,58,8,84,8s43-8,61-8c15,0,25.39,2,34.91,3.92C703.32,4.79,706,2,712,2V0Z"/><path class="cls-1" d="M712,2s24,3,47,4,44-2,62,0,33-3,54-3c29,0,58,8,84,8s43-8,61-8c22,0,34,3.19,48,5V0H712Z"/><path class="cls-1" d="M1068,8s24,3,47,4,44-2,62,0,33-3,54-3c29,0,58,8,84,8s43-8,61-8c22,0,34,3.19,48,5V0H1068Z"/><path class="cls-1" d="M1424,14s24,3,47,4,44-2,62,0,33-3,54-3c29,0,58,8,84,8s43-8,61-8c22,0,34,3.19,48,5V0H1424Z"/><path class="cls-1" d="M1780,20s24,3,47,4,48,5,62,6c9,.64,33-9,54-9,29,0,59,13,85,13s42-13,60-13c22,0,34,3.19,48,5V0H1780Z"/><path class="cls-1" d="M2136,26s24,3,47,4,48,5,62,6c9,.64,33-9,54-9,29,0,59,16,85,16s42-16,60-16c22,0,34,3.19,48,5V0H2136Z"/><path class="cls-1" d="M2492,32s24,4,47,4c53,0,50.05,16.55,64,15,9-1,31-18,52-18,52,0,59,24,85,24s22-23,60-24c22-.58,34,3.19,48,5V0H2492Z"/><path class="cls-1" d="M2848,38s24,4,47,4c53,0,49,23,63,23,10,0,23-27,53-26,79,2.63,66,38,83,38,18,0,13-38,62-38,22,0,34,3.19,48,5V0H2848Z"/><path class="cls-1" d="M3204,44s24,4,47,4c63,0,55,27,63,27,5,0,16-30,53-30,80,0,73,45,83,45,12,0,10-45,62-45,22,0,34,3.19,48,5V0H3204Z"/><path class="cls-1" d="M3560,50s24,4,47,4c63,0,62,48,66,48,5,0,12-48,50-51,79.75-6.3,79,74,83,74,5,0,10-74,62-74,22,0,34,3.19,48,5V0H3560Z"/><path class="cls-1" d="M3916,56s24,4,47,4c63,0,62,57,66,57,5,0,12-57,50-60,79.75-6.3,79,88,83,88,5,0,10-88,62-88,22,0,34,3.19,48,5V0H3916Z"/><path class="cls-1" d="M4272,62s24,4,47,4c63,0,64,65,68,65s10-65,48-68c79.75-6.3,79,108,83,108s10-108,62-108c22,0,36,3.19,50,5V0H4272Z"/><path class="cls-1" d="M4630,68s24,4,47,4c63,0,64,79,68,79s10-79,48-82c79.75-6.3,79,122,83,122s10-122,62-122c22,0,34,2.19,48,4V0H4630Z"/><path class="cls-1" d="M4986,73s24,4,47,4c63,0,64,83,68,83s10-83,48-86c79.75-6.3,79,126,83,126s10-126,62-126c22,0,34,2.19,48,4V0H4986Z"/><path class="cls-1" d="M5342,78s24,4,47,4c63,0,64,83,68,83s10-83,48-86c61.53-4.86,75.14,72.78,80,108.51.5,3.73,2.42,12.49,3,12.49s3.07-8.62,3.69-12.38C5597.3,153.06,5610.13,79,5650,79c22,0,34,2.19,48,4V0H5342Z"/><path class="cls-1" d="M5585,187.51c.82,6.9-1,12.49,1,12.49h3c2,0,1-5,2.69-12.38"/><path class="cls-1" d="M5698,0V83s24,4,47,4c63,0,64,95,68,95s10-95,48-98c60.51-4.78,74.67,70.22,79.74,106.69.73,4.69-4.74,7.31-7.74,7.31s-2.19,2-2.19,2H5944a1.09,1.09,0,0,0,1.05,0h21.25s-.3-2-10.3-2-8-7-8-7l-.05,0c5.76-35.21,18.81-107,58.05-107,22,0,35,2.19,49,4V0Z"/><path class="cls-1" d="M6055,0V88s25-1,47,4c68,30,64,103,68,103s10-97,48-100c60.51-4.78,73.94,60.53,79,97,.73,4.69-4,6-7,6-10,0-16,2-16,2h27a1.09,1.09,0,0,0,1.05,0H6337s-14-2-24-2c-6,0-7-5-7-5h0c5.76-35.21,16.76-98,56-98,22,0,35-3.81,49-2V0Z"/><path class="cls-1" d="M6411,0V93l.78,0a109.2,109.2,0,0,1,109.61,85.54c1.23,5.57,2,10.37,2.59,14h0a2.17,2.17,0,0,1,0,.25c.11,1.18-.54,6.33-19.53,7.21h32c-4.3-.82-8.17-3.2-7-9.35h0c6.13-22.36,19.27-77.26,49.5-79.65,60.51-4.78,73,39.18,73,76,0,10-21,10-24,10-10,0-28,3-28,3h57a1.09,1.09,0,0,0,1.05,0H6719s-11-2-32-2a54.34,54.34,0,0,1-8.75-1.22,15.68,15.68,0,0,1-11.94-20.1c6.24-19.8,20-52.21,45.69-65.68,21-11,41-14.81,55-13V0Z"/><path class="cls-1" d="M6546,200h-9.56A30.78,30.78,0,0,0,6546,200Z"/><path class="cls-1" d="M6767,0V98l.78,0a109.2,109.2,0,0,1,109.61,85.54,29.51,29.51,0,0,1,.65,9.2c0,.22-.05.43-.06.65l0,.41a4.11,4.11,0,0,1-3.17,3.77h0l-1,.23a8,8,0,0,1-1.88.22c-5,0-26.06.25-37.91,2h88c-4.3-.82-34,1-36.5-4.35h0c-.5-.65,0-6.49,1-9.58,7.09-22.13,23.45-51.85,51.53-54.07,60.51-4.78,77.58,21.39,65,56-4,11-40,8-43,8-10,0-27,4-27,4h82a1.09,1.09,0,0,0,1.05,0H7108a266,266,0,0,0-39-3c-1.93,0-20.45-3.3-24-4-9.18-1.81-17.31-5.68-16-16,2.61-20.6,13.14-44.87,41-53,24-7,39-5.81,53-4V0Z"/><path class="cls-1" d="M7123,0V98s-.44,21.74,0,22c48,29,80.61,35.48,106,59,4.19,3.88,4.82,11.68,0,13-11,3-56,0-73,8h133l-37-7c-.5-.65-6-2-6-7,0-23.24,19.92-32.78,48-35,60.51-4.78,77.58,2.39,65,37-4,11-40,8-43,8-10,0-27,4-27,4h82a1.09,1.09,0,0,0,1.05,0H7464a266,266,0,0,0-39-3c-1.93,0-20.45-3.3-24-4-9.18-1.81-17.31-5.68-16-16,2.61-20.6,15.14-28.87,43-37,24-7,37-3.81,51-2V0Z"/><path class="cls-1" d="M7479,0V138s49.61,10.48,75,34c4.19,3.88,4.82,11.68,0,13-8.54,2.33-50.36.41-75,5v10h166v-5c-3.78-.76-9.28-2.08-11.73-2.69a17.62,17.62,0,0,1-2.46-.79c-5-2-14.81-4.51-13.81-8.52s4.84-12.12,33-13c32-1,48-4,58,7,8.85,9.73-33,15-36,15-6.58,0-21,3-27,3v5h82a1.09,1.09,0,0,0,1.05,0H7820a266,266,0,0,0-39-3c-1.93,0-20.45-3.3-24-4-9.18-1.81-21.77-7.35-16-16,6-9,14-15.26,43-14,23,1,38,5.19,52,7V0Z"/><path class="cls-1" d="M7836,0V172s18-5,43,0c5.6,1.12,13,5,11,7-6.26,6.26-29,1-54,2v19h166v-5c-3.78-.76-9.28-2.08-11.73-2.69-.84-.2-10.27-4.3-9.27-8.31s-2.16-5.12,26-6c32-1,38-8,48,3,8.85,9.73-23,11-26,11-6.58,0-21,3-27,3v5h82a1.09,1.09,0,0,0,1.05,0H8192a138.06,138.06,0,0,0-39-6c-1.93,0-21.45-1.3-25-2-9.18-1.81-14-5-11-10,5.54-9.24,8-9.26,37-8,23,1,24,3.19,38,5V0Z"/><polyline class="cls-1" points="8548 0 8192 0 8192 200 8548 200"/><line class="cls-1" x1="8507" y1="194" x2="8509" y2="194"/></g></g></svg>